<mxfile host="app.diagrams.net" agent="Mozilla/5.0 (Android 14; Mobile; rv:132.0) Gecko/132.0 Firefox/132.0" version="24.8.3">
  <diagram name="Page-1" id="7TLoSlnA5qg7WNukJ8If">
    <mxGraphModel dx="380" dy="624" grid="0" gridSize="10" guides="1" tooltips="1" connect="1" arrows="1" fold="1" page="0" pageScale="1" pageWidth="850" pageHeight="1100" math="0" shadow="0">
      <root>
        <mxCell id="0" />
        <mxCell id="1" parent="0" />
        <mxCell id="_JzeLw9SQuoGLri-DoFY-1" value="" style="whiteSpace=wrap;html=1;" vertex="1" parent="1">
          <mxGeometry x="140" y="170" width="120" height="60" as="geometry" />
        </mxCell>
      </root>
    </mxGraphModel>
  </diagram>
</mxfile>
